<svg width="153" height="36" viewBox="0 0 153 36" fill="none" xmlns="http://www.w3.org/2000/svg">
<path fill-rule="evenodd" clip-rule="evenodd" d="M23.3121 11.9428L20.8811 14.367C19.6902 13.1793 17.9543 12.7155 16.3275 13.1502C14.7006 13.5849 13.4299 14.8521 12.994 16.4744C12.5581 18.0967 13.0232 19.8276 14.2141 21.0152L11.7832 23.4394C9.72099 21.3863 8.91463 18.3916 9.66809 15.5846C10.4216 12.7775 12.6203 10.585 15.4352 9.83365C18.2501 9.0823 21.2532 9.88641 23.3121 11.9428Z" fill="#D12D2C"/>
<path fill-rule="evenodd" clip-rule="evenodd" d="M30.599 5.89126L5.74364 30.677L6.34127 31.2729C7.02363 31.8626 7.75054 32.399 8.51554 32.8773L10.4462 30.952L11.4082 34.5319L14.3048 31.6433L13.3429 28.0635L17.9151 23.5041L19.1526 28.1099L15.2949 31.9569L16.3358 35.9221L20.2129 32.0558L21.0827 35.2929C22.2481 35.073 23.3881 34.7359 24.4853 34.2869L23.5569 30.8318L28.3579 32.1147L27.2712 28.1617L22.4966 26.886L20.9163 21.0046L26.7515 22.5638L28.0476 27.3875L32.0116 28.4712L30.7084 23.6211L34.1492 24.5404C34.5869 23.4415 34.9119 22.3013 35.1193 21.1371L31.9985 20.3032L35.8297 16.4827L31.8534 15.4447L28.0415 19.2459L23.4228 18.0118L27.9491 13.4982L31.539 14.4575L34.4357 11.5689L30.8458 10.6097L32.7764 8.68437C32.1467 7.68267 31.4172 6.74689 30.599 5.89126Z" fill="#1263AF"/>
<path fill-rule="evenodd" clip-rule="evenodd" d="M20.4097 8.90198L22.7421 1.04361C21.6069 0.720515 20.4421 0.511856 19.2651 0.420769L17.3255 8.46133C18.3735 8.38254 19.4261 8.53292 20.4097 8.90198Z" fill="#D12D2C"/>
<path fill-rule="evenodd" clip-rule="evenodd" d="M16.2904 8.58674L14.4128 0.777199C13.2584 1.00649 12.13 1.35099 11.0447 1.8055L13.343 9.53653C14.2441 9.00913 15.2502 8.68493 16.2904 8.58674Z" fill="#D12D2C"/>
<path fill-rule="evenodd" clip-rule="evenodd" d="M11.0081 11.1699C11.3761 10.8027 11.7832 10.4767 12.2221 10.1976L6.71045 4.40055C6.26011 4.76846 5.82437 5.16187 5.40323 5.58078C4.98338 5.99944 4.58934 6.43341 4.2211 6.88267L10.0343 12.3787C10.3139 11.9417 10.6404 11.5363 11.0081 11.1699Z" fill="#D12D2C"/>
<path fill-rule="evenodd" clip-rule="evenodd" d="M9.37098 13.4964L1.61796 11.2046C1.16203 12.2868 0.816435 13.412 0.58638 14.5631L8.41768 16.4353C8.51643 15.398 8.84183 14.3949 9.37098 13.4964Z" fill="#D12D2C"/>
<path fill-rule="evenodd" clip-rule="evenodd" d="M8.29171 17.4673L0.228271 19.4016C0.319453 20.5753 0.528563 21.7369 0.852457 22.869L8.73272 20.5431C8.3629 19.5621 8.21239 18.5124 8.29171 17.4673V17.4673Z" fill="#D12D2C"/>
<path fill-rule="evenodd" clip-rule="evenodd" d="M9.16564 21.3969L2.93094 27.3132C3.56156 28.3142 4.29184 29.2492 5.1107 30.1041L11.0135 24.2178C10.2108 23.4132 9.58194 22.4531 9.16564 21.3969Z" fill="#D12D2C"/>
<path fill-rule="evenodd" clip-rule="evenodd" d="M21.2638 9.33259L27.1967 3.11539C28.2005 3.74424 29.1382 4.47248 29.9954 5.28904L24.0926 11.1753C23.2856 10.3751 22.3229 9.74799 21.2638 9.33259Z" fill="#D12D2C"/>
<path fill-rule="evenodd" clip-rule="evenodd" d="M47.4875 13.2096H46.1498V17.8382H43.3214V6.13821H46.1498V10.6623H47.2377L49.494 6.13821H52.9188L49.6955 11.5382L53.3217 17.8382H49.9775L47.4875 13.2096Z" fill="#D12D2C"/>
<path fill-rule="evenodd" clip-rule="evenodd" d="M61.6781 9.14357V17.8382H58.9625V11.2329H57.3347L57.1897 13.8927C57.0876 15.2105 56.7894 16.1963 56.2952 16.8498C55.7687 17.519 54.9467 17.8883 54.0953 17.8382H53.2411L53.2089 15.765L53.4909 15.7329C53.8759 15.6695 54.1889 15.3888 54.2927 15.0137C54.5041 14.3741 54.6168 13.7062 54.6271 13.0329L54.7963 9.14357H61.6781Z" fill="#D12D2C"/>
<path fill-rule="evenodd" clip-rule="evenodd" d="M68.2295 9.14357H70.9532V17.8382H68.2295V12.7757L65.8362 17.8382H63.1044V9.14357H65.8362V14.19L68.2295 9.14357Z" fill="#D12D2C"/>
<path fill-rule="evenodd" clip-rule="evenodd" d="M77.8672 14.8489L79.8415 9.14357H83.2582V17.8382H80.5345V13.0168L78.7778 17.8382H76.9727L75.3127 13.2739V17.8382H72.589V9.14357H75.9252L77.8672 14.8489Z" fill="#D12D2C"/>
<path fill-rule="evenodd" clip-rule="evenodd" d="M89.729 17.0588C89.7794 17.329 89.8662 17.5911 89.9869 17.8382L92.7025 17.8382V17.7016C92.4334 17.1294 92.3063 16.501 92.3318 15.8695V12.0204C92.3561 11.1671 91.9917 10.3488 91.3407 9.79448C90.588 9.21813 89.6531 8.93016 88.7056 8.98287C87.7298 8.94264 86.7672 9.21857 85.9618 9.76937C85.2797 10.2268 84.8751 10.9965 84.886 11.8161H87.6016C87.5654 11.5519 87.656 11.2861 87.8463 11.0986C88.0365 10.9112 88.3041 10.824 88.5686 10.8632C89.2616 10.8633 89.6081 11.2643 89.6081 12.0662V12.5266H88.7701C87.4378 12.5266 86.4224 12.7677 85.724 13.2498C85.0253 13.7317 84.6284 14.5415 84.6765 15.3873C84.6632 16.1086 84.9807 16.7965 85.5387 17.2556C86.1206 17.7538 86.8672 18.0187 87.6339 17.9989C88.443 18.0389 89.2223 17.6892 89.729 17.0588ZM89.1287 15.8534C88.8753 16.0062 88.5825 16.0817 88.2866 16.0704C88.0527 16.0791 87.8244 15.997 87.65 15.8413C87.483 15.6878 87.3917 15.469 87.4002 15.2427C87.4002 14.3963 87.8729 13.973 88.8184 13.973H89.6081V15.3632C89.4929 15.5647 89.3278 15.7335 89.1287 15.8534Z" fill="#D12D2C"/>
<path fill-rule="evenodd" clip-rule="evenodd" d="M101.341 11.2168H98.5931V17.8382H95.8614V11.2168H93.1538V9.14357H101.341V11.2168Z" fill="#D12D2C"/>
<path fill-rule="evenodd" clip-rule="evenodd" d="M112.333 17.8382H109.504V8.31589H105.29V17.8382H102.461V6.13821H112.333V17.8382Z" fill="#1263AF"/>
<path fill-rule="evenodd" clip-rule="evenodd" d="M121.144 16.7896C121.754 15.9833 122.059 14.9052 122.059 13.5552V13.4266C122.059 12.0444 121.761 10.9583 121.164 10.1681C120.578 9.38246 119.639 8.93833 118.658 8.98285C117.858 8.95984 117.095 9.31791 116.603 9.94714L116.523 9.14357H113.984V21.1811H116.7V17.123C117.192 17.6966 117.918 18.0183 118.674 17.9989C119.648 18.0299 120.573 17.5767 121.144 16.7896ZM117.989 11.0722C118.892 11.0722 119.343 11.8436 119.343 13.3864V13.6757C119.316 15.165 118.87 15.9097 118.006 15.9097C117.462 15.9609 116.943 15.6735 116.7 15.1864V11.7632C116.915 11.3025 117.345 11.0722 117.989 11.0722Z" fill="#1263AF"/>
<path fill-rule="evenodd" clip-rule="evenodd" d="M123.421 11.0923C123.072 11.8149 122.898 12.6089 122.913 13.4106L122.921 13.8686C122.921 14.9934 123.357 16.0748 124.138 16.886C124.941 17.6478 126.021 18.0498 127.128 17.999C128.274 18.0558 129.389 17.6216 130.194 16.8057C130.949 16.0101 131.326 14.9347 131.326 13.5793V13.4829C131.326 12.0954 130.95 10.9985 130.198 10.1923C129.392 9.36387 128.267 8.92296 127.111 8.98289C126.332 8.96425 125.561 9.15285 124.879 9.52932C124.247 9.89225 123.738 10.4369 123.421 11.0923ZM126.007 15.3472C125.715 14.8058 125.584 14.1925 125.629 13.5793L125.637 13.0891C125.712 11.7445 126.203 11.0722 127.111 11.0722C128.111 11.0722 128.61 11.8516 128.61 13.4106V13.6838C128.589 15.1677 128.094 15.9097 127.128 15.9097C126.681 15.9336 126.254 15.7195 126.007 15.3472Z" fill="#1263AF"/>
<path fill-rule="evenodd" clip-rule="evenodd" d="M132.188 13.507C132.188 12.1195 132.477 11.0186 133.054 10.2043C133.584 9.41474 134.484 8.95307 135.436 8.98286C135.787 8.98443 136.135 9.05544 136.459 9.19179V5.49536H139.175V9.18376C139.493 9.04846 139.836 8.98008 140.182 8.98286C141.138 8.95242 142.042 9.41755 142.571 10.2123C143.149 11.032 143.438 12.1864 143.438 13.6757C143.438 15.015 143.146 16.0704 142.563 16.8418C142.017 17.5955 141.13 18.0291 140.198 17.9989C139.848 18.0037 139.501 17.941 139.175 17.8141V21.1811H136.459V17.8061C136.127 17.9334 135.775 17.9988 135.42 17.9989C134.49 18.0278 133.606 17.5942 133.062 16.8418C132.48 16.0704 132.188 14.9963 132.188 13.6195L132.188 13.507ZM134.904 13.6757C134.904 15.1436 135.293 15.8855 136.072 15.9016H136.282L136.459 15.8855V11.0963L136.121 11.0721C135.309 11.0721 134.904 11.94 134.904 13.6757ZM140.412 11.715C140.639 12.2842 140.742 12.895 140.714 13.507L140.706 14.0534C140.647 15.2909 140.254 15.9096 139.529 15.9096L139.175 15.8936V11.0963L139.513 11.0721C139.918 11.0767 140.277 11.3336 140.412 11.715Z" fill="#1263AF"/>
<path fill-rule="evenodd" clip-rule="evenodd" d="M149.699 9.14357H152.422V17.8382H149.699V12.7757L147.305 17.8382H144.574V9.14357H147.305V14.19L149.699 9.14357Z" fill="#1263AF"/>
<path fill-rule="evenodd" clip-rule="evenodd" d="M43.3589 31.0382V23.2382H45.9161C46.596 23.1888 47.2723 23.3742 47.8313 23.7632C48.2767 24.1528 48.5141 24.7274 48.4733 25.3168C48.4785 25.6645 48.3691 26.0042 48.1617 26.2838C47.9427 26.573 47.6494 26.7979 47.3129 26.9347C47.714 27.0383 48.0675 27.2755 48.3148 27.607C48.564 27.9499 48.6933 28.3649 48.6828 28.7882C48.7146 29.4124 48.4643 30.0179 48.0005 30.4382C47.4539 30.8688 46.767 31.0825 46.0719 31.0382H43.3589ZM44.3904 26.565H45.9483C46.3381 26.585 46.7221 26.465 47.0308 26.2269C47.3017 26.0003 47.4516 25.661 47.4364 25.3088C47.468 24.9546 47.3283 24.6066 47.0604 24.3719C46.7213 24.1522 46.3194 24.0494 45.9161 24.0793H44.3904V26.565ZM44.3904 30.1971V27.39H46.1095C47.1338 27.3901 47.646 27.8598 47.646 28.7989C47.6662 29.1855 47.5138 29.5611 47.2296 29.8248C46.9114 30.0872 46.5056 30.2202 46.0934 30.1971H44.3904Z" fill="#1263AF"/>
<path fill-rule="evenodd" clip-rule="evenodd" d="M52.3842 30.3364C52.7224 30.3421 53.0516 30.2282 53.3136 30.015C53.5674 29.821 53.7274 29.5292 53.7541 29.2114H54.6943C54.6726 29.5537 54.5533 29.8827 54.3505 30.1596C54.1325 30.4652 53.8417 30.7119 53.5043 30.8775C53.1577 31.0545 52.7737 31.1464 52.3842 31.1454C51.6679 31.1773 50.9749 30.8874 50.4959 30.3552C50.0004 29.7468 49.7504 28.976 49.7948 28.1936V28.0275C49.7852 27.5089 49.8916 26.9946 50.1064 26.5221C50.2979 26.1012 50.6089 25.7455 51.0009 25.4989C51.416 25.2489 51.8941 25.1225 52.3789 25.1346C52.9755 25.1148 53.5571 25.3237 54.0039 25.7186C54.4349 26.1066 54.6849 26.6557 54.6943 27.2346H53.7541C53.7363 26.8833 53.5833 26.5523 53.327 26.3105C53.0714 26.0696 52.7305 25.9396 52.3789 25.9489C51.9217 25.9266 51.4828 26.1299 51.205 26.4927C50.8981 26.9575 50.7519 27.5097 50.7887 28.065V28.2525C50.7538 28.7981 50.8991 29.34 51.2024 29.7954C51.4829 30.1588 51.925 30.3611 52.3842 30.3364Z" fill="#1263AF"/>
<path fill-rule="evenodd" clip-rule="evenodd" d="M56.5128 23.2844C56.4134 23.3962 56.3605 23.5416 56.365 23.6909C56.3602 23.8395 56.4131 23.9842 56.5128 24.0947C56.6285 24.2091 56.7881 24.2679 56.9506 24.2561C57.1073 24.2715 57.2629 24.2179 57.3766 24.1092C57.4902 24.0005 57.5505 23.8477 57.5415 23.6909C57.5457 23.5412 57.4918 23.3956 57.3911 23.2844C57.2749 23.1689 57.1143 23.109 56.9506 23.1204C56.7876 23.1086 56.6276 23.1686 56.5128 23.2844ZM56.3006 30.3713C56.8019 30.8906 57.5014 31.1721 58.2238 31.1454C59.1035 31.194 59.9413 30.7661 60.4157 30.0257L59.8086 29.5543C59.6341 29.7828 59.4171 29.9756 59.1693 30.1222C58.8968 30.2723 58.5887 30.3463 58.2775 30.3364C57.812 30.349 57.3647 30.1559 57.0553 29.8088C56.7224 29.4247 56.5435 28.9315 56.5531 28.4239H60.4909V28.0114C60.5413 27.2489 60.3186 26.4933 59.8623 25.8793C59.4216 25.3733 58.7714 25.0985 58.1002 25.1347C57.6429 25.1333 57.1954 25.2666 56.8136 25.5177C56.4128 25.7788 56.0928 26.1461 55.8896 26.5784C55.6628 27.0599 55.5498 27.5868 55.5592 28.1186V28.3007C55.5212 29.0616 55.7879 29.8064 56.3006 30.3713ZM58.1002 25.949C57.716 25.9416 57.3475 26.1009 57.0903 26.3856C56.7954 26.7295 56.6184 27.1584 56.5853 27.6097H59.497V27.5347C59.4967 27.1098 59.3529 26.6975 59.0887 26.3641C58.8386 26.0846 58.4756 25.9321 58.1002 25.949ZM58.8228 23.2925C58.7236 23.4054 58.6709 23.5516 58.6751 23.7016C58.6702 23.8502 58.7232 23.9949 58.8228 24.1054C58.9385 24.2198 59.0982 24.2787 59.2606 24.2668C59.4173 24.2823 59.573 24.2286 59.6866 24.1199C59.8002 24.0112 59.8605 23.8584 59.8516 23.7016C59.8555 23.5511 59.8017 23.4048 59.7012 23.2925C59.5859 23.1753 59.4249 23.1143 59.2606 23.1257C59.0971 23.1139 58.9368 23.175 58.8228 23.2925Z" fill="#1263AF"/>
<path fill-rule="evenodd" clip-rule="evenodd" d="M64.6597 29.8061L64.3159 30.2293H63.8646L63.8592 32.7418H64.8531V31.0382H68.9091V32.7418H69.903V30.2293H69.1562V25.2418H65.4118L65.3205 27.5561C65.2668 28.5562 65.0465 29.3062 64.6597 29.8061ZM68.1624 30.2293H65.4924C66.0295 29.4348 66.3158 28.4982 66.3143 27.54L66.3734 26.1579H68.1624V30.2293Z" fill="#1263AF"/>
<path fill-rule="evenodd" clip-rule="evenodd" d="M75.7694 25.2418V31.0382H74.7701V26.0614H72.7932L72.675 28.2311C72.6105 29.2275 72.4431 29.94 72.1727 30.3686C71.8925 30.8028 71.4034 31.0573 70.8861 31.0382H70.4885V30.165L70.7732 30.1436C71.0939 30.1097 71.365 29.8917 71.4662 29.5864C71.6492 28.982 71.7397 28.3535 71.7349 27.7221L71.8423 25.2418H75.7694Z" fill="#1263AF"/>
<path fill-rule="evenodd" clip-rule="evenodd" d="M81.8077 31.0382V25.2418H79.3634C78.7906 25.2158 78.2266 25.389 77.7678 25.732C77.3775 26.0398 77.1564 26.5137 77.1715 27.0097C77.1641 27.3639 77.2684 27.7115 77.4697 28.0034C77.682 28.2977 77.9818 28.5179 78.3265 28.6329L76.8653 31.0382H77.9397L79.3096 28.7829H80.8085V31.0382H81.8077ZM78.4608 27.7034C78.2672 27.53 78.1609 27.2797 78.1708 27.0204C78.1632 26.7473 78.2845 26.4865 78.4985 26.3159C78.7508 26.1246 79.063 26.0288 79.3795 26.0454H80.8085V27.9686H79.2291C78.9488 27.9789 78.6748 27.8843 78.4608 27.7034Z" fill="#1263AF"/>
<path fill-rule="evenodd" clip-rule="evenodd" d="M89.5759 30.4275C89.5911 30.637 89.6382 30.8429 89.7156 31.0382H90.7578V30.9525C90.6058 30.547 90.5364 30.1154 90.5536 29.6829V27.015C90.5662 26.4916 90.3506 25.9884 89.9627 25.6356C89.5184 25.2799 88.9575 25.1014 88.3887 25.1347C87.9886 25.1301 87.5921 25.2104 87.2256 25.3704C86.8963 25.5095 86.6079 25.7298 86.3875 26.0106C86.1933 26.2476 86.0845 26.5429 86.0786 26.8489H87.0778C87.0824 26.5867 87.2172 26.3437 87.4378 26.2007C87.6974 26.016 88.0108 25.9219 88.3296 25.9329C88.6648 25.9085 88.9958 26.0195 89.2482 26.2409C89.462 26.4622 89.5748 26.7617 89.5598 27.0686V27.5239H88.5928C87.9087 27.4828 87.2291 27.6581 86.6507 28.0248C86.1965 28.3466 85.9366 28.876 85.9604 29.4311C85.9491 29.9027 86.1514 30.3542 86.5111 30.6606C86.9034 30.993 87.4068 31.1661 87.9213 31.1454C88.5499 31.1509 89.1514 30.8899 89.5759 30.4275ZM88.9527 30.0418C88.6841 30.1996 88.3781 30.2829 88.0663 30.2829C87.7764 30.2951 87.4919 30.2018 87.2659 30.0204C87.0548 29.8385 86.9399 29.5696 86.9543 29.2918C86.9542 28.5811 87.563 28.2257 88.7808 28.2257H89.5598V29.415C89.4262 29.6807 89.2144 29.8994 88.9527 30.0418Z" fill="#1263AF"/>
<path fill-rule="evenodd" clip-rule="evenodd" d="M92.2029 31.0382V25.2418H94.47C95.0901 25.2045 95.7081 25.3449 96.2509 25.6463C96.657 25.9015 96.894 26.3548 96.8713 26.8329C96.8733 27.0948 96.7883 27.3501 96.6296 27.5588C96.4459 27.7909 96.1972 27.9634 95.9151 28.0543C96.241 28.1223 96.537 28.291 96.7612 28.5364C96.9726 28.7716 97.0869 29.0778 97.0809 29.3936C97.1061 29.874 96.8844 30.3343 96.4926 30.615C95.9963 30.9258 95.4149 31.0738 94.8299 31.0382H92.2029ZM93.1968 27.7007H94.4807C95.4118 27.7007 95.8774 27.4293 95.8775 26.8865C95.8775 26.3437 95.437 26.0634 94.5559 26.0454H93.1968V27.7007ZM93.1968 30.24V28.4936H94.803C95.6554 28.4936 96.0816 28.7829 96.0816 29.3615C96.0934 29.6154 95.9776 29.8585 95.7727 30.0097C95.4943 30.1829 95.1679 30.2635 94.8406 30.24H93.1968Z" fill="#1263AF"/>
<path fill-rule="evenodd" clip-rule="evenodd" d="M102.652 26.0454H100.702V31.0382H99.7079V26.0454H97.7954V25.2418H102.652V26.0454Z" fill="#1263AF"/>
<path fill-rule="evenodd" clip-rule="evenodd" d="M103.466 26.5543C103.236 27.0322 103.121 27.5567 103.13 28.0864V28.1561C103.092 28.9456 103.353 29.7204 103.863 30.3257C104.347 30.8702 105.049 31.1707 105.778 31.1454C106.268 31.1546 106.749 31.0245 107.167 30.7704C107.572 30.5182 107.895 30.1544 108.097 29.723C108.319 29.248 108.43 28.7286 108.422 28.2043V28.1347C108.461 27.3417 108.199 26.5631 107.688 25.9543C107.203 25.4091 106.498 25.1086 105.768 25.1347C105.286 25.1263 104.812 25.2545 104.4 25.5043C103.995 25.7579 103.67 26.1223 103.466 26.5543ZM104.578 29.7525C104.259 29.3007 104.102 28.7558 104.129 28.2043C104.091 27.6128 104.25 27.0253 104.58 26.5329C104.856 26.1559 105.3 25.9378 105.768 25.949C106.243 25.9363 106.694 26.1577 106.974 26.5409C107.293 26.9913 107.453 27.5352 107.428 28.0864C107.463 28.6727 107.307 29.2545 106.982 29.7445C106.695 30.1163 106.252 30.3349 105.782 30.3364C105.311 30.338 104.867 30.1224 104.578 29.7525Z" fill="#1263AF"/>
<path fill-rule="evenodd" clip-rule="evenodd" d="M111.478 28.5686H110.753V31.0382H109.754V25.2418H110.753V27.6954H111.403L113.359 25.2418H114.562L112.263 28.0275L114.755 31.0382H113.493L111.478 28.5686Z" fill="#1263AF"/>
<path fill-rule="evenodd" clip-rule="evenodd" d="M120.375 25.2418V31.0382H119.375V26.0614H117.398L117.28 28.2311C117.216 29.2275 117.048 29.94 116.778 30.3686C116.498 30.8028 116.009 31.0573 115.491 31.0382H115.094V30.165L115.379 30.1436C115.699 30.1097 115.97 29.8917 116.072 29.5864C116.254 28.982 116.345 28.3535 116.34 27.7221L116.448 25.2418H120.375Z" fill="#1263AF"/>
<path fill-rule="evenodd" clip-rule="evenodd" d="M125.731 25.2418H126.725V31.0382H125.731V26.8114L123.05 31.0382H122.056V25.2418H123.05V29.4739L125.731 25.2418Z" fill="#1263AF"/>
<path fill-rule="evenodd" clip-rule="evenodd" d="M131.667 29.7257L133.644 25.2418H134.885V31.0382H133.891V26.8221L132.011 31.0382H131.323L129.405 26.7311V31.0382H128.411V25.2418H129.701L131.667 29.7257Z" fill="#1263AF"/>
<path fill-rule="evenodd" clip-rule="evenodd" d="M139.929 30.4275C139.945 30.637 139.992 30.8429 140.069 31.0382H141.111V30.9525C140.959 30.547 140.89 30.1154 140.907 29.6829V27.015C140.92 26.4916 140.704 25.9884 140.316 25.6356C139.872 25.2799 139.311 25.1014 138.742 25.1347C138.342 25.1301 137.946 25.2104 137.579 25.3704C137.25 25.5095 136.961 25.7298 136.741 26.0106C136.547 26.2476 136.438 26.5429 136.432 26.8489H137.431C137.436 26.5867 137.571 26.3437 137.791 26.2007C138.051 26.016 138.364 25.9219 138.683 25.9329C139.018 25.9085 139.349 26.0195 139.602 26.2409C139.816 26.4622 139.928 26.7617 139.913 27.0686V27.5239H138.946C138.262 27.4828 137.583 27.6581 137.004 28.0248C136.55 28.3466 136.29 28.876 136.314 29.4311C136.303 29.9027 136.505 30.3542 136.865 30.6606C137.257 30.993 137.76 31.1661 138.275 31.1454C138.903 31.1509 139.505 30.8899 139.929 30.4275ZM139.306 30.0418C139.038 30.1996 138.732 30.2829 138.42 30.2829C138.13 30.2951 137.845 30.2018 137.619 30.0204C137.408 29.8385 137.293 29.5696 137.308 29.2918C137.308 28.5811 137.917 28.2257 139.134 28.2257H139.913V29.415C139.78 29.6807 139.568 29.8994 139.306 30.0418Z" fill="#1263AF"/>
<path fill-rule="evenodd" clip-rule="evenodd" d="M146.698 26.0454H144.748V31.0382H143.754V26.0454H141.842V25.2418H146.698V26.0454Z" fill="#1263AF"/>
<path fill-rule="evenodd" clip-rule="evenodd" d="M151.028 30.4275C151.044 30.637 151.091 30.8429 151.168 31.0382H152.21V30.9525C152.058 30.547 151.989 30.1154 152.006 29.6829V27.015C152.019 26.4916 151.803 25.9884 151.415 25.6356C150.971 25.2799 150.41 25.1014 149.841 25.1347C149.441 25.1301 149.045 25.2104 148.678 25.3704C148.349 25.5095 148.06 25.7298 147.84 26.0106C147.646 26.2476 147.537 26.5429 147.531 26.8489H148.53C148.535 26.5867 148.67 26.3437 148.89 26.2007C149.15 26.016 149.463 25.9219 149.782 25.9329C150.117 25.9085 150.448 26.0195 150.701 26.2409C150.915 26.4622 151.027 26.7617 151.012 27.0686V27.5239H150.045C149.361 27.4828 148.682 27.6581 148.103 28.0248C147.649 28.3466 147.389 28.876 147.413 29.4311C147.402 29.9027 147.604 30.3542 147.964 30.6606C148.356 30.993 148.859 31.1661 149.374 31.1454C150.002 31.1509 150.604 30.8899 151.028 30.4275ZM150.405 30.0418C150.137 30.1996 149.831 30.2829 149.519 30.2829C149.229 30.2951 148.944 30.2018 148.718 30.0204C148.507 29.8385 148.392 29.5696 148.407 29.2918C148.407 28.5811 149.016 28.2257 150.233 28.2257H151.012V29.415C150.879 29.6807 150.667 29.8994 150.405 30.0418Z" fill="#1263AF"/>
</svg>
